# xmcd
#
# Track frame offsets:
#	150
#	13685
#	29907
#	47145
#	65345
#	78740
#	89672
#	101690
#	111632
#	127152
#	141495
#	155535
#	167765
#
# Disc length: 2371 seconds
#
# Revision: 1
# Processed by: cddbd v1.5.2PL0 Copyright (c) Steve Scherf et al.
# Submitted via: audiograbber 1.83.01
#
DISCID=c709410d
DTITLE=Eddie Hinton - Very Blue Highway
DYEAR=1993
DGENRE=Blues
TTITLE0=I Love Someone
TTITLE1=Rock of my Soul
TTITLE2=Poor Ol' Me
TTITLE3=Sad Carol
TTITLE4=Very Blue Highway
TTITLE5=Call A Blues
TTITLE6=Good Love is Hard to Find
TTITLE7=Just Don't Know
TTITLE8=Let it Roll
TTITLE9=How You Goin' To Georgia
TTITLE10=Standin' In
TTITLE11=Hey Justine
TTITLE12=Nobody but You
EXTD=
EXTT0=
EXTT1=
EXTT2=
EXTT3=
EXTT4=
EXTT5=
EXTT6=
EXTT7=
EXTT8=
EXTT9=
EXTT10=
EXTT11=
EXTT12=
PLAYORDER=
